<?xml version="1.0" encoding="UTF-8" standalone="no"?>
<svg
   xmlns:dc="http://purl.org/dc/elements/1.1/"
   xmlns:cc="http://creativecommons.org/ns#"
   xmlns:rdf="http://www.w3.org/1999/02/22-rdf-syntax-ns#"
   xmlns:svg="http://www.w3.org/2000/svg"
   xmlns="http://www.w3.org/2000/svg"
   xmlns:sodipodi="http://sodipodi.sourceforge.net/DTD/sodipodi-0.dtd"
   xmlns:inkscape="http://www.inkscape.org/namespaces/inkscape"
   version="1.1"
   width="600px"
   height="241px"
   viewBox="0 0 600 241"
   shape-rendering="crispEdges"
   stroke-width="1"
   text-rendering="geometricPrecision"
   id="svg2"
   inkscape:version="0.48.4 r9939"
   sodipodi:docname="subscribe_normal.svg">
  <metadata
     id="metadata78">
    <rdf:RDF>
      <cc:Work
         rdf:about="">
        <dc:format>image/svg+xml</dc:format>
        <dc:type
           rdf:resource="http://purl.org/dc/dcmitype/StillImage" />
      </cc:Work>
    </rdf:RDF>
  </metadata>
  <defs
     id="defs76" />
  <sodipodi:namedview
     pagecolor="#ffffff"
     bordercolor="#666666"
     borderopacity="1"
     objecttolerance="10"
     gridtolerance="10"
     guidetolerance="10"
     inkscape:pageopacity="0"
     inkscape:pageshadow="2"
     inkscape:window-width="1600"
     inkscape:window-height="876"
     id="namedview74"
     showgrid="false"
     inkscape:zoom="1.3765012"
     inkscape:cx="349.6088"
     inkscape:cy="48.529731"
     inkscape:window-x="0"
     inkscape:window-y="24"
     inkscape:window-maximized="1"
     inkscape:current-layer="svg2" />
  <polygon
     fill="white"
     points="133,7 165,7 165,16 133,16"
     id="polygon4" />
  <text
     x="150"
     y="16"
     textLength="31"
     font-family="Helvetica"
     font-size="12"
     fill="black"
     text-anchor="middle"
     id="text6">

Client
</text>
  <polygon
     fill="white"
     points="431,7 467,7 467,16 431,16"
     id="polygon8" />
  <text
     x="450"
     y="16"
     textLength="35"
     font-family="Helvetica"
     font-size="12"
     fill="black"
     text-anchor="middle"
     id="text10">

Server
</text>
  <line
     x1="150"
     y1="22"
     x2="150"
     y2="65"
     stroke="black"
     id="line12" />
  <line
     x1="450"
     y1="22"
     x2="450"
     y2="65"
     stroke="black"
     id="line14" />
  <line
     x1="150"
     y1="33"
     x2="450"
     y2="48"
     stroke="black"
     id="line16" />
  <polygon
     fill="black"
     points="450,48 440,54 440,42"
     id="polygon18" />
  <polygon
     fill="white"
     points="256,30 343,30 343,39 256,39"
     id="polygon20" />
  <text
     x="257"
     y="39"
     textLength="85"
     font-family="Helvetica"
     font-size="12"
     fill="black"
     id="text22">
subscribe-query
</text>
  <line
     x1="150"
     y1="65"
     x2="150"
     y2="108"
     stroke="black"
     id="line24" />
  <line
     x1="450"
     y1="65"
     x2="450"
     y2="108"
     stroke="black"
     id="line26" />
  <line
     x1="450"
     y1="76"
     x2="150"
     y2="91"
     stroke="black"
     id="line28" />
  <polygon
     fill="black"
     points="150,91 160,97 160,85"
     id="polygon30" />
  <polygon
     fill="white"
     points="231,73 368,73 368,82 231,82"
     id="polygon32" />
  <text
     x="232"
     y="82"
     textLength="135"
     font-family="Helvetica"
     font-size="12"
     fill="black"
     id="text34">
subscribe-queryresponse
</text>
  <line
     x1="150"
     y1="108"
     x2="150"
     y2="151"
     stroke="black"
     id="line36" />
  <line
     x1="450"
     y1="108"
     x2="450"
     y2="151"
     stroke="black"
     id="line38" />
  <line
     x1="150"
     y1="119"
     x2="450"
     y2="134"
     stroke="black"
     id="line40" />
  <polygon
     fill="black"
     points="450,134 440,140 440,128"
     id="polygon42" />
  <text
     x="150"
     y="115"
     textLength="299"
     font-size="12"
     id="text46"
     style="font-size:12px;fill:#000000;font-family:Helvetica">subscribe-request, seq: 1, payload: ['sensor1', 'sensor5']</text>
  <line
     x1="150"
     y1="151"
     x2="150"
     y2="194"
     stroke="black"
     id="line48" />
  <line
     x1="450"
     y1="151"
     x2="450"
     y2="194"
     stroke="black"
     id="line50" />
  <line
     x1="450"
     y1="162"
     x2="150"
     y2="177"
     stroke="black"
     id="line52" />
  <polygon
     fill="black"
     points="150,177 160,183 160,171"
     id="polygon54" />
  <text
     x="97"
     y="158"
     textLength="405"
     font-size="12"
     id="text58"
     style="font-size:12px;fill:#000000;font-family:Helvetica">subscribe-response, ackseq: 1, seq:1 payload: {'sensor1': 1, 'sensor2': 0, ...}</text>
  <line
     x1="150"
     y1="194"
     x2="150"
     y2="226"
     stroke="black"
     id="line60" />
  <line
     x1="450"
     y1="194"
     x2="450"
     y2="226"
     stroke="black"
     id="line62" />
  <line
     x1="75"
     y1="199"
     x2="525"
     y2="199"
     stroke="black"
     stroke-dasharray="2,2"
     id="line64" />
  <polygon
     fill="white"
     points="232,202 366,202 366,211 232,211"
     id="polygon66" />
  <text
     x="233"
     y="211"
     textLength="132"
     font-family="Helvetica"
     font-size="12"
     fill="black"
     id="text68">
Ready to start publishing
</text>
  <line
     x1="150"
     y1="205"
     x2="150"
     y2="241"
     stroke="black"
     id="line70" />
  <line
     x1="450"
     y1="205"
     x2="450"
     y2="241"
     stroke="black"
     id="line72" />
</svg>
